<?xml version="1.0" encoding="iso-8859-1"?>
<!-- Uploaded to: SVG Repo, www.svgrepo.com, Generator: SVG Repo Mixer Tools -->
<svg height="800px" width="800px" version="1.1" id="Layer_1" xmlns="http://www.w3.org/2000/svg" xmlns:xlink="http://www.w3.org/1999/xlink" 
 	 viewBox="0 0 512 512" xml:space="preserve">
<polygon style="fill:#3D51CC;" points="299.739,0 212.255,0 201.361,43.574 310.633,43.574 "/>
<g>
    <path style="fill:#5BACF5;" d="M168.681,0c-4.513,0-8.17,3.657-8.17,8.17v43.574h16.34V8.17C176.851,3.657,173.193,0,168.681,0z"/>
    <path style="fill:#5BACF5;" d="M343.312,0c-4.513,0-8.17,3.657-8.17,8.17v43.574h16.34V8.17C351.483,3.657,347.826,0,343.312,0z"/>
</g>
<polygon style="fill:#B8DDFF;" points="408.675,32.681 103.318,32.681 89.315,238.035 422.679,238.035 "/>
<g>
    <path style="fill:#5BACF5;" d="M378.281,73.532H133.712c-4.513,0-8.17-3.657-8.17-8.17s3.657-8.17,8.17-8.17h244.569
        c4.513,0,8.17,3.657,8.17,8.17S382.794,73.532,378.281,73.532z"/>
    <path style="fill:#5BACF5;" d="M380.656,106.213H131.338c-4.513,0-8.17-3.657-8.17-8.17s3.657-8.17,8.17-8.17h249.318
        c4.513,0,8.17,3.657,8.17,8.17S385.168,106.213,380.656,106.213z"/>
    <path style="fill:#5BACF5;" d="M383.027,138.894H128.966c-4.513,0-8.17-3.657-8.17-8.17c0-4.513,3.657-8.17,8.17-8.17h254.061
        c4.513,0,8.17,3.657,8.17,8.17C391.197,135.237,387.54,138.894,383.027,138.894z"/>
    <path style="fill:#5BACF5;" d="M385.401,171.574H126.591c-4.513,0-8.17-3.657-8.17-8.17s3.657-8.17,8.17-8.17h258.809
        c4.513,0,8.17,3.657,8.17,8.17S389.914,171.574,385.401,171.574z"/>
</g>
<path style="fill:#3D51CC;" d="M223.946,198.717L63.909,230.576l41.156,221.047h172.719l-21.787-255.538
    C244.378,196.085,232.76,196.962,223.946,198.717z"/>
<path style="fill:#353185;" d="M448.086,230.576l-160.037-31.859c-8.814-1.755-20.433-2.632-32.052-2.632v255.537h150.934
    L448.086,230.576z"/>
<path style="fill:#5BACF5;" d="M503.827,430.523c-16.955,0-31.964-8.278-41.316-20.934c-9.316,12.656-24.361,20.934-41.28,20.934
    c-16.955,0-31.965-8.278-41.316-20.934c-9.352,12.656-24.362,20.934-41.316,20.934c-16.959,0-31.925-8.278-41.28-20.934
    c-9.352,12.656-24.362,20.934-41.316,20.934c-16.959,0-31.965-8.278-41.281-20.934c-9.391,12.656-24.361,20.934-41.316,20.934
    c-16.958,0-31.964-8.278-41.28-20.934c-9.352,12.656-24.402,20.934-41.357,20.934c-16.919,0-31.924-8.278-41.28-20.934
    c-9.352,12.656-24.357,20.934-41.316,20.934v49.021l247.827,16.115l247.83-16.115V430.523z"/>
<path style="fill:#4C7FE1;" d="M462.51,458.61c-9.316,12.656-24.361,20.934-41.28,20.934c-16.955,0-31.965-8.278-41.316-20.934
    c-9.352,12.656-24.362,20.934-41.316,20.934c-16.959,0-31.925-8.278-41.28-20.934c-9.353,12.656-24.362,20.934-41.316,20.934
    c-16.959,0-31.965-8.278-41.281-20.934c-9.391,12.656-24.361,20.934-41.316,20.934c-16.958,0-31.964-8.278-41.28-20.934
    c-9.352,12.656-24.402,20.934-41.357,20.934c-16.919,0-31.924-8.278-41.28-20.934c-9.352,12.656-24.357,20.934-41.316,20.934V512
    h495.66v-32.455C486.872,479.545,471.862,471.268,462.51,458.61z"/>
</svg>
<?xml version="1.0" encoding="iso-8859-1"?>
<!-- Uploaded to: SVG Repo, www.svgrepo.com, Generator: SVG Repo Mixer Tools -->
<svg height="800px" width="800px" version="1.1" id="Layer_1" xmlns="http://www.w3.org/2000/svg" xmlns:xlink="http://www.w3.org/1999/xlink" 
	 viewBox="0 0 512 512" xml:space="preserve">
<polygon style="fill:#3D51CC;" points="299.739,0 212.255,0 201.361,43.574 310.633,43.574 "/>
<g>
	<path style="fill:#5BACF5;" d="M168.681,0c-4.513,0-8.17,3.657-8.17,8.17v43.574h16.34V8.17C176.851,3.657,173.193,0,168.681,0z"/>
	<path style="fill:#5BACF5;" d="M343.312,0c-4.513,0-8.17,3.657-8.17,8.17v43.574h16.34V8.17C351.483,3.657,347.826,0,343.312,0z"/>
</g>
<polygon style="fill:#B8DDFF;" points="408.675,32.681 103.318,32.681 89.315,238.035 422.679,238.035 "/>
<g>
	<path style="fill:#5BACF5;" d="M378.281,73.532H133.712c-4.513,0-8.17-3.657-8.17-8.17s3.657-8.17,8.17-8.17h244.569
		c4.513,0,8.17,3.657,8.17,8.17S382.794,73.532,378.281,73.532z"/>
	<path style="fill:#5BACF5;" d="M380.656,106.213H131.338c-4.513,0-8.17-3.657-8.17-8.17s3.657-8.17,8.17-8.17h249.318
		c4.513,0,8.17,3.657,8.17,8.17S385.168,106.213,380.656,106.213z"/>
	<path style="fill:#5BACF5;" d="M383.027,138.894H128.966c-4.513,0-8.17-3.657-8.17-8.17c0-4.513,3.657-8.17,8.17-8.17h254.061
		c4.513,0,8.17,3.657,8.17,8.17C391.197,135.237,387.54,138.894,383.027,138.894z"/>
	<path style="fill:#5BACF5;" d="M385.401,171.574H126.591c-4.513,0-8.17-3.657-8.17-8.17s3.657-8.17,8.17-8.17h258.809
		c4.513,0,8.17,3.657,8.17,8.17S389.914,171.574,385.401,171.574z"/>
</g>
<path style="fill:#3D51CC;" d="M223.946,198.717L63.909,230.576l41.156,221.047h172.719l-21.787-255.538
	C244.378,196.085,232.76,196.962,223.946,198.717z"/>
<path style="fill:#353185;" d="M448.086,230.576l-160.037-31.859c-8.814-1.755-20.433-2.632-32.052-2.632v255.537h150.934
	L448.086,230.576z"/>
<path style="fill:#5BACF5;" d="M503.827,430.523c-16.955,0-31.964-8.278-41.316-20.934c-9.316,12.656-24.361,20.934-41.28,20.934
	c-16.955,0-31.965-8.278-41.316-20.934c-9.352,12.656-24.362,20.934-41.316,20.934c-16.959,0-31.925-8.278-41.28-20.934
	c-9.352,12.656-24.362,20.934-41.316,20.934c-16.959,0-31.965-8.278-41.281-20.934c-9.391,12.656-24.361,20.934-41.316,20.934
	c-16.958,0-31.964-8.278-41.28-20.934c-9.352,12.656-24.402,20.934-41.357,20.934c-16.919,0-31.924-8.278-41.28-20.934
	c-9.352,12.656-24.357,20.934-41.316,20.934v49.021l247.827,16.115l247.83-16.115V430.523z"/>
<path style="fill:#4C7FE1;" d="M462.51,458.61c-9.316,12.656-24.361,20.934-41.28,20.934c-16.955,0-31.965-8.278-41.316-20.934
	c-9.352,12.656-24.362,20.934-41.316,20.934c-16.959,0-31.925-8.278-41.28-20.934c-9.353,12.656-24.362,20.934-41.316,20.934
	c-16.959,0-31.965-8.278-41.281-20.934c-9.391,12.656-24.361,20.934-41.316,20.934c-16.958,0-31.964-8.278-41.28-20.934
	c-9.352,12.656-24.402,20.934-41.357,20.934c-16.919,0-31.924-8.278-41.28-20.934c-9.352,12.656-24.357,20.934-41.316,20.934V512
	h495.66v-32.455C486.872,479.545,471.862,471.268,462.51,458.61z"/>
</svg>